<svg width="1600" height="900" viewBox="0 0 1600 900" fill="none" xmlns="http://www.w3.org/2000/svg">
<rect width="1600" height="900" fill="#FAF9F8"></rect>
<rect x="1165" y="348" width="285" height="205" rx="16" fill="#D6CFCC"></rect>
<path d="M1184.67 502L1186.41 496.996H1193.8L1195.52 502H1198.55L1191.75 483.091H1188.45L1181.65 502H1184.67ZM1187.24 494.595L1190.03 486.526H1190.18L1192.97 494.595H1187.24ZM1209.78 496.119C1209.79 498.528 1208 499.673 1206.45 499.673C1204.74 499.673 1203.56 498.436 1203.56 496.506V487.818H1200.8V496.839C1200.8 500.357 1202.73 502.185 1205.45 502.185C1207.59 502.185 1209.04 501.058 1209.69 499.544H1209.84V502H1212.55V487.818H1209.78V496.119ZM1222.62 487.818H1219.72V484.42H1216.95V487.818H1214.88V490.034H1216.95V498.408C1216.95 500.984 1218.91 502.231 1221.09 502.185C1221.97 502.175 1222.56 502.009 1222.88 501.889L1222.38 499.609C1222.2 499.646 1221.86 499.729 1221.41 499.729C1220.52 499.729 1219.72 499.433 1219.72 497.836V490.034H1222.62V487.818ZM1228.48 493.58C1228.48 491.317 1229.91 490.025 1231.88 490.025C1233.78 490.025 1234.92 491.234 1234.92 493.312V502H1237.68V492.979C1237.68 489.443 1235.74 487.634 1232.82 487.634C1230.62 487.634 1229.29 488.594 1228.62 490.126H1228.45V483.091H1225.72V502H1228.48V493.58ZM1258.26 488.058H1261.01C1260.93 485.03 1258.25 482.832 1254.41 482.832C1250.61 482.832 1247.71 485.002 1247.71 488.261C1247.71 490.893 1249.59 492.435 1252.63 493.256L1254.86 493.866C1256.88 494.401 1258.44 495.066 1258.44 496.746C1258.44 498.593 1256.68 499.812 1254.25 499.812C1252.05 499.812 1250.23 498.833 1250.06 496.774H1247.2C1247.38 500.2 1250.03 502.314 1254.27 502.314C1258.71 502.314 1261.27 499.978 1261.27 496.774C1261.27 493.367 1258.23 492.047 1255.83 491.456L1253.98 490.976C1252.51 490.597 1250.54 489.905 1250.55 488.095C1250.55 486.489 1252.02 485.298 1254.34 485.298C1256.51 485.298 1258.06 486.313 1258.26 488.058ZM1270.31 502.286C1273.4 502.286 1275.59 500.763 1276.22 498.455L1273.6 497.984C1273.11 499.322 1271.91 500.006 1270.34 500.006C1267.97 500.006 1266.38 498.473 1266.31 495.74H1276.39V494.761C1276.39 489.637 1273.33 487.634 1270.11 487.634C1266.16 487.634 1263.56 490.643 1263.56 495.001C1263.56 499.406 1266.13 502.286 1270.31 502.286ZM1266.32 493.672C1266.43 491.659 1267.89 489.914 1270.13 489.914C1272.28 489.914 1273.68 491.502 1273.69 493.672H1266.32ZM1279.2 502H1281.96V493.339C1281.96 491.484 1283.39 490.145 1285.35 490.145C1285.92 490.145 1286.56 490.246 1286.79 490.311V487.67C1286.51 487.634 1285.96 487.606 1285.61 487.606C1283.95 487.606 1282.53 488.548 1282.01 490.071H1281.86V487.818H1279.2V502ZM1301.48 487.818H1298.51L1294.93 498.732H1294.78L1291.19 487.818H1288.23L1293.38 502H1296.34L1301.48 487.818ZM1309.42 502.286C1312.51 502.286 1314.7 500.763 1315.33 498.455L1312.71 497.984C1312.21 499.322 1311.01 500.006 1309.44 500.006C1307.08 500.006 1305.49 498.473 1305.42 495.74H1315.5V494.761C1315.5 489.637 1312.44 487.634 1309.22 487.634C1305.27 487.634 1302.67 490.643 1302.67 495.001C1302.67 499.406 1305.23 502.286 1309.42 502.286ZM1305.43 493.672C1305.54 491.659 1307 489.914 1309.24 489.914C1311.38 489.914 1312.79 491.502 1312.8 493.672H1305.43ZM1318.3 502H1321.07V493.339C1321.07 491.493 1322.5 490.154 1324.41 490.154C1324.94 490.154 1325.36 490.265 1325.69 490.431L1326.58 488.123C1326.11 487.809 1325.5 487.606 1324.72 487.606C1323.04 487.606 1321.64 488.548 1321.12 490.071H1320.97V487.818H1318.3V502Z" fill="#242424"></path>
<path d="M1188.97 531.286C1192.06 531.286 1194.25 529.763 1194.88 527.455L1192.26 526.984C1191.77 528.322 1190.57 529.006 1189 529.006C1186.63 529.006 1185.04 527.473 1184.97 524.74H1195.05V523.761C1195.05 518.637 1191.99 516.634 1188.77 516.634C1184.82 516.634 1182.22 519.643 1182.22 524.001C1182.22 528.406 1184.79 531.286 1188.97 531.286ZM1184.98 522.672C1185.09 520.659 1186.55 518.914 1188.79 518.914C1190.93 518.914 1192.34 520.502 1192.35 522.672H1184.98ZM1203.8 536.586C1207.41 536.586 1210.2 534.933 1210.2 531.314V516.818H1207.49V519.117H1207.29C1206.8 518.24 1205.82 516.634 1203.18 516.634C1199.76 516.634 1197.24 519.339 1197.24 523.854C1197.24 528.378 1199.81 530.788 1203.16 530.788C1205.77 530.788 1206.77 529.32 1207.27 528.415H1207.45V531.203C1207.45 533.391 1205.93 534.361 1203.83 534.361C1201.53 534.361 1200.63 533.207 1200.15 532.422L1197.77 533.401C1198.52 535.109 1200.41 536.586 1203.8 536.586ZM1203.77 528.498C1201.31 528.498 1200.03 526.605 1200.03 523.817C1200.03 521.093 1201.28 518.979 1203.77 518.979C1206.18 518.979 1207.48 520.945 1207.48 523.817C1207.48 526.744 1206.16 528.498 1203.77 528.498ZM1215.46 531.175C1216.47 531.175 1217.31 530.354 1217.31 529.329C1217.31 528.322 1216.47 527.491 1215.46 527.491C1214.45 527.491 1213.61 528.322 1213.61 529.329C1213.61 530.354 1214.45 531.175 1215.46 531.175ZM1243.71 521.545C1243.71 515.498 1240.09 511.832 1235.2 511.832C1230.28 511.832 1226.67 515.498 1226.67 521.545C1226.67 527.584 1230.28 531.259 1235.2 531.259C1240.09 531.259 1243.71 527.593 1243.71 521.545ZM1240.88 521.545C1240.88 526.153 1238.45 528.655 1235.2 528.655C1231.94 528.655 1229.51 526.153 1229.51 521.545C1229.51 516.938 1231.94 514.436 1235.2 514.436C1238.45 514.436 1240.88 516.938 1240.88 521.545ZM1253.58 516.818H1250.52V515.544C1250.52 514.288 1251.04 513.605 1252.39 513.605C1252.96 513.605 1253.37 513.734 1253.63 513.817L1254.27 511.583C1253.88 511.435 1253.08 511.205 1251.96 511.205C1249.72 511.205 1247.75 512.516 1247.75 515.175V516.818H1245.57V519.034H1247.75V531H1250.52V519.034H1253.58V516.818ZM1262.97 516.818H1259.91V515.544C1259.91 514.288 1260.43 513.605 1261.78 513.605C1262.35 513.605 1262.76 513.734 1263.01 513.817L1263.66 511.583C1263.27 511.435 1262.47 511.205 1261.35 511.205C1259.11 511.205 1257.14 512.516 1257.14 515.175V516.818H1254.95V519.034H1257.14V531H1259.91V519.034H1262.97V516.818ZM1265.56 531H1268.32V516.818H1265.56V531ZM1266.96 514.63C1267.91 514.63 1268.7 513.891 1268.7 512.987C1268.7 512.082 1267.91 511.334 1266.96 511.334C1266 511.334 1265.21 512.082 1265.21 512.987C1265.21 513.891 1266 514.63 1266.96 514.63ZM1277.75 531.286C1281.1 531.286 1283.27 529.273 1283.58 526.513H1280.89C1280.54 528.045 1279.35 528.95 1277.77 528.95C1275.43 528.95 1273.93 527.002 1273.93 523.909C1273.93 520.871 1275.46 518.96 1277.77 518.96C1279.52 518.96 1280.59 520.068 1280.89 521.398H1283.58C1283.28 518.536 1280.94 516.634 1277.72 516.634C1273.72 516.634 1271.14 519.643 1271.14 523.974C1271.14 528.249 1273.63 531.286 1277.75 531.286ZM1292.38 531.286C1295.47 531.286 1297.66 529.763 1298.29 527.455L1295.68 526.984C1295.18 528.322 1293.98 529.006 1292.41 529.006C1290.04 529.006 1288.46 527.473 1288.38 524.74H1298.46V523.761C1298.46 518.637 1295.4 516.634 1292.19 516.634C1288.23 516.634 1285.63 519.643 1285.63 524.001C1285.63 528.406 1288.2 531.286 1292.38 531.286ZM1288.39 522.672C1288.5 520.659 1289.96 518.914 1292.2 518.914C1294.35 518.914 1295.75 520.502 1295.76 522.672H1288.39ZM1314.43 531.259C1318.29 531.259 1321.13 528.95 1321.12 525.811C1321.13 523.42 1319.68 521.702 1317.17 521.315V521.167C1319.14 520.659 1320.43 519.108 1320.42 516.984C1320.43 514.205 1318.15 511.832 1314.51 511.832C1311.04 511.832 1308.25 513.928 1308.16 517.003H1310.92C1310.98 515.267 1312.62 514.214 1314.47 514.214C1316.4 514.214 1317.67 515.387 1317.66 517.132C1317.67 518.96 1316.2 520.161 1314.1 520.161H1312.5V522.487H1314.1C1316.72 522.487 1318.24 523.817 1318.24 525.719C1318.24 527.556 1316.64 528.803 1314.42 528.803C1312.37 528.803 1310.77 527.75 1310.66 526.07H1307.76C1307.88 529.153 1310.61 531.259 1314.43 531.259ZM1330.95 531.259C1334.9 531.295 1337.52 528.452 1337.52 524.823C1337.52 521.204 1334.89 518.609 1331.62 518.609C1329.62 518.609 1327.89 519.57 1326.93 521.167H1326.79C1326.8 516.827 1328.42 514.288 1331.19 514.288C1333.01 514.288 1334.15 515.387 1334.54 517.003H1337.36C1336.92 513.965 1334.57 511.786 1331.19 511.786C1326.8 511.786 1324.05 515.562 1324.05 522.183C1324.05 529.144 1327.59 531.231 1330.95 531.259ZM1330.94 528.858C1328.74 528.858 1327.14 527.011 1327.14 524.888C1327.15 522.773 1328.83 520.927 1331.01 520.927C1333.17 520.927 1334.75 522.672 1334.75 524.86C1334.75 527.094 1333.1 528.858 1330.94 528.858ZM1346.86 531.259C1350.66 531.259 1353.38 528.572 1353.37 524.888C1353.38 521.232 1350.83 518.572 1347.39 518.572C1345.98 518.572 1344.68 519.108 1343.94 519.828H1343.83L1344.43 514.538H1352.46V512.091H1342.06L1341 521.619L1343.61 522.007C1344.32 521.37 1345.6 520.936 1346.74 520.936C1348.98 520.955 1350.61 522.635 1350.61 524.943C1350.61 527.214 1349.03 528.858 1346.86 528.858C1345.03 528.858 1343.58 527.695 1343.43 526.07H1340.66C1340.78 529.08 1343.39 531.259 1346.86 531.259Z" fill="#666361"></path>
<rect x="674" y="342" width="415" height="217" rx="22" fill="#343433" stroke="#FAF9F8" stroke-width="12"></rect>
<circle cx="708" cy="376" r="12" fill="#FAF9F8"></circle>
<path d="M698.233 481.281H704.577V499H707.639V481.281H713.993V478.636H698.233V481.281ZM719.323 499.338C721.849 499.338 723.271 498.055 723.838 496.912H723.957V499H726.86V488.858C726.86 484.413 723.36 483.528 720.934 483.528C718.17 483.528 715.624 484.642 714.63 487.426L717.424 488.062C717.862 486.979 718.975 485.935 720.974 485.935C722.893 485.935 723.877 486.939 723.877 488.669V488.739C723.877 489.822 722.764 489.803 720.019 490.121C717.126 490.459 714.163 491.214 714.163 494.685C714.163 497.688 716.42 499.338 719.323 499.338ZM719.97 496.952C718.289 496.952 717.076 496.196 717.076 494.724C717.076 493.134 718.488 492.567 720.208 492.338C721.173 492.209 723.46 491.95 723.887 491.523V493.491C723.887 495.301 722.445 496.952 719.97 496.952ZM730.54 499H733.513V483.727H730.54V499ZM732.042 481.371C733.066 481.371 733.921 480.575 733.921 479.601C733.921 478.626 733.066 477.821 732.042 477.821C731.007 477.821 730.162 478.626 730.162 479.601C730.162 480.575 731.007 481.371 732.042 481.371ZM740.206 478.636H737.233V499H740.206V478.636ZM755.37 487.456C754.754 485.08 752.894 483.528 749.593 483.528C746.143 483.528 743.697 485.348 743.697 488.053C743.697 490.22 745.009 491.662 747.873 492.298L750.458 492.865C751.93 493.193 752.616 493.849 752.616 494.804C752.616 495.987 751.353 496.912 749.404 496.912C747.624 496.912 746.481 496.146 746.123 494.645L743.249 495.082C743.746 497.787 745.994 499.308 749.424 499.308C753.113 499.308 755.668 497.349 755.668 494.585C755.668 492.428 754.296 491.095 751.492 490.449L749.066 489.892C747.386 489.494 746.66 488.928 746.67 487.893C746.66 486.72 747.933 485.885 749.623 485.885C751.472 485.885 752.327 486.909 752.675 487.933L755.37 487.456ZM765.09 499.308C768.7 499.308 771.036 497.141 771.365 494.168H768.471C768.093 495.818 766.811 496.793 765.11 496.793C762.595 496.793 760.974 494.695 760.974 491.364C760.974 488.092 762.625 486.034 765.11 486.034C767 486.034 768.153 487.227 768.471 488.659H771.365C771.046 485.577 768.531 483.528 765.061 483.528C760.755 483.528 757.971 486.77 757.971 491.433C757.971 496.037 760.656 499.308 765.09 499.308ZM778.708 499.338C781.234 499.338 782.656 498.055 783.223 496.912H783.342V499H786.245V488.858C786.245 484.413 782.745 483.528 780.319 483.528C777.555 483.528 775.01 484.642 774.015 487.426L776.809 488.062C777.247 486.979 778.36 485.935 780.359 485.935C782.278 485.935 783.262 486.939 783.262 488.669V488.739C783.262 489.822 782.149 489.803 779.405 490.121C776.511 490.459 773.548 491.214 773.548 494.685C773.548 497.688 775.805 499.338 778.708 499.338ZM779.355 496.952C777.674 496.952 776.461 496.196 776.461 494.724C776.461 493.134 777.873 492.567 779.593 492.338C780.558 492.209 782.845 491.95 783.272 491.523V493.491C783.272 495.301 781.831 496.952 779.355 496.952ZM792.898 478.636H789.925V499H792.898V478.636ZM803.2 499.308C806.531 499.308 808.888 497.668 809.564 495.182L806.75 494.675C806.213 496.116 804.921 496.852 803.23 496.852C800.685 496.852 798.974 495.202 798.895 492.259H809.753V491.205C809.753 485.686 806.452 483.528 802.992 483.528C798.736 483.528 795.932 486.77 795.932 491.463C795.932 496.206 798.696 499.308 803.2 499.308ZM798.905 490.031C799.024 487.864 800.595 485.984 803.011 485.984C805.318 485.984 806.83 487.695 806.84 490.031H798.905ZM716.151 516.259C715.455 511.903 712.044 509.358 707.739 509.358C702.469 509.358 698.581 513.305 698.581 519.818C698.581 526.331 702.449 530.278 707.739 530.278C712.213 530.278 715.484 527.474 716.151 523.447L713.048 523.438C712.521 526.043 710.334 527.474 707.759 527.474C704.268 527.474 701.634 524.8 701.634 519.818C701.634 514.876 704.259 512.162 707.768 512.162C710.364 512.162 712.541 513.624 713.048 516.259H716.151ZM725.742 530.308C730.047 530.308 732.861 527.156 732.861 522.433C732.861 517.68 730.047 514.528 725.742 514.528C721.436 514.528 718.622 517.68 718.622 522.433C718.622 527.156 721.436 530.308 725.742 530.308ZM725.752 527.812C722.938 527.812 721.625 525.357 721.625 522.423C721.625 519.5 722.938 517.014 725.752 517.014C728.546 517.014 729.858 519.5 729.858 522.423C729.858 525.357 728.546 527.812 725.752 527.812ZM742.333 530.308C746.638 530.308 749.452 527.156 749.452 522.433C749.452 517.68 746.638 514.528 742.333 514.528C738.027 514.528 735.213 517.68 735.213 522.433C735.213 527.156 738.027 530.308 742.333 530.308ZM742.343 527.812C739.529 527.812 738.216 525.357 738.216 522.423C738.216 519.5 739.529 517.014 742.343 517.014C745.137 517.014 746.449 519.5 746.449 522.423C746.449 525.357 745.137 527.812 742.343 527.812ZM752.491 530H755.464V520.673C755.464 518.685 757.005 517.243 759.063 517.243C759.64 517.243 760.087 517.362 760.445 517.541L761.4 515.055C760.893 514.717 760.236 514.499 759.401 514.499C757.591 514.499 756.08 515.513 755.523 517.153H755.364V514.727H752.491V530ZM768.537 530.298C771.321 530.298 772.415 528.598 772.952 527.624H773.201V530H776.104V509.636H773.131V517.203H772.952C772.415 516.259 771.401 514.528 768.557 514.528C764.868 514.528 762.154 517.442 762.154 522.393C762.154 527.335 764.829 530.298 768.537 530.298ZM769.194 527.763C766.539 527.763 765.157 525.426 765.157 522.364C765.157 519.331 766.509 517.054 769.194 517.054C771.789 517.054 773.181 519.172 773.181 522.364C773.181 525.575 771.759 527.763 769.194 527.763ZM780.067 530H783.04V514.727H780.067V530ZM781.569 512.371C782.593 512.371 783.448 511.575 783.448 510.601C783.448 509.626 782.593 508.821 781.569 508.821C780.535 508.821 779.689 509.626 779.689 510.601C779.689 511.575 780.535 512.371 781.569 512.371ZM789.733 520.932C789.733 518.496 791.224 517.104 793.293 517.104C795.311 517.104 796.534 518.426 796.534 520.643V530H799.507V520.286C799.507 516.507 797.429 514.528 794.307 514.528C792.01 514.528 790.509 515.592 789.803 517.213H789.614V514.727H786.76V530H789.733V520.932ZM807.659 530.338C810.185 530.338 811.606 529.055 812.173 527.912H812.292V530H815.196V519.858C815.196 515.413 811.696 514.528 809.27 514.528C806.506 514.528 803.96 515.642 802.966 518.426L805.76 519.062C806.197 517.979 807.311 516.935 809.31 516.935C811.229 516.935 812.213 517.939 812.213 519.669V519.739C812.213 520.822 811.099 520.803 808.355 521.121C805.462 521.459 802.498 522.214 802.498 525.685C802.498 528.688 804.756 530.338 807.659 530.338ZM808.305 527.952C806.625 527.952 805.412 527.196 805.412 525.724C805.412 524.134 806.824 523.567 808.544 523.338C809.508 523.209 811.795 522.95 812.223 522.523V524.491C812.223 526.301 810.781 527.952 808.305 527.952ZM826.005 514.727H822.873V511.068H819.9V514.727H817.663V517.114H819.9V526.132C819.89 528.906 822.008 530.249 824.354 530.199C825.299 530.189 825.935 530.01 826.283 529.881L825.747 527.425C825.548 527.464 825.18 527.554 824.702 527.554C823.738 527.554 822.873 527.236 822.873 525.516V517.114H826.005V514.727ZM829.014 530H831.987V514.727H829.014V530ZM830.515 512.371C831.539 512.371 832.394 511.575 832.394 510.601C832.394 509.626 831.539 508.821 830.515 508.821C829.481 508.821 828.636 509.626 828.636 510.601C828.636 511.575 829.481 512.371 830.515 512.371ZM842.14 530.308C846.445 530.308 849.259 527.156 849.259 522.433C849.259 517.68 846.445 514.528 842.14 514.528C837.834 514.528 835.02 517.68 835.02 522.433C835.02 527.156 837.834 530.308 842.14 530.308ZM842.15 527.812C839.336 527.812 838.023 525.357 838.023 522.423C838.023 519.5 839.336 517.014 842.15 517.014C844.944 517.014 846.256 519.5 846.256 522.423C846.256 525.357 844.944 527.812 842.15 527.812ZM855.27 520.932C855.27 518.496 856.762 517.104 858.83 517.104C860.849 517.104 862.072 518.426 862.072 520.643V530H865.045V520.286C865.045 516.507 862.967 514.528 859.844 514.528C857.547 514.528 856.046 515.592 855.34 517.213H855.151V514.727H852.297V530H855.27V520.932ZM887.227 514.986H890.19C890.101 511.724 887.217 509.358 883.081 509.358C878.994 509.358 875.862 511.695 875.862 515.205C875.862 518.038 877.891 519.699 881.162 520.584L883.568 521.24C885.746 521.817 887.426 522.533 887.426 524.342C887.426 526.331 885.527 527.643 882.912 527.643C880.545 527.643 878.577 526.589 878.398 524.372H875.315C875.514 528.061 878.368 530.338 882.932 530.338C887.714 530.338 890.469 527.822 890.469 524.372C890.469 520.703 887.197 519.281 884.612 518.645L882.623 518.128C881.033 517.72 878.915 516.974 878.925 515.026C878.925 513.295 880.506 512.013 883.011 512.013C885.348 512.013 887.008 513.107 887.227 514.986ZM900.204 530.308C903.535 530.308 905.891 528.668 906.568 526.182L903.754 525.675C903.217 527.116 901.924 527.852 900.234 527.852C897.688 527.852 895.978 526.202 895.899 523.259H906.756V522.205C906.756 516.686 903.455 514.528 899.995 514.528C895.739 514.528 892.935 517.77 892.935 522.463C892.935 527.206 895.7 530.308 900.204 530.308ZM895.908 521.031C896.028 518.864 897.599 516.984 900.015 516.984C902.322 516.984 903.833 518.695 903.843 521.031H895.908ZM909.775 530H912.748V520.673C912.748 518.675 914.289 517.233 916.397 517.233C917.014 517.233 917.71 517.342 917.948 517.412V514.568C917.65 514.528 917.063 514.499 916.686 514.499C914.896 514.499 913.365 515.513 912.808 517.153H912.649V514.727H909.775V530ZM933.771 514.727H930.58L926.722 526.48H926.563L922.695 514.727H919.503L925.051 530H928.233L933.771 514.727ZM942.321 530.308C945.652 530.308 948.008 528.668 948.685 526.182L945.871 525.675C945.334 527.116 944.041 527.852 942.351 527.852C939.805 527.852 938.095 526.202 938.016 523.259H948.874V522.205C948.874 516.686 945.572 514.528 942.112 514.528C937.856 514.528 935.053 517.77 935.053 522.463C935.053 527.206 937.817 530.308 942.321 530.308ZM938.026 521.031C938.145 518.864 939.716 516.984 942.132 516.984C944.439 516.984 945.95 518.695 945.96 521.031H938.026ZM951.892 530H954.865V520.673C954.865 518.685 956.406 517.243 958.465 517.243C959.041 517.243 959.489 517.362 959.847 517.541L960.801 515.055C960.294 514.717 959.638 514.499 958.803 514.499C956.993 514.499 955.482 515.513 954.925 517.153H954.766V514.727H951.892V530Z" fill="#FAF9F8"></path>
<rect x="75" y="449" width="426" height="145" rx="24" fill="#EEECEA"></rect>
<path d="M99 489C99 480.163 106.163 473 115 473H461C469.837 473 477 480.163 477 489V510C477 518.837 469.837 526 461 526H115C106.163 526 99 518.837 99 510V489Z" fill="#D6CFCC"></path>
<path d="M116.145 492.547H122.036V509H124.879V492.547H130.779V490.091H116.145V492.547ZM135.729 509.314C138.074 509.314 139.394 508.123 139.921 507.061H140.031V509H142.727V499.582C142.727 495.455 139.477 494.634 137.225 494.634C134.658 494.634 132.294 495.668 131.371 498.253L133.965 498.844C134.372 497.837 135.406 496.868 137.261 496.868C139.043 496.868 139.958 497.8 139.958 499.407V499.472C139.958 500.478 138.923 500.46 136.375 500.755C133.688 501.069 130.937 501.771 130.937 504.993C130.937 507.781 133.033 509.314 135.729 509.314ZM136.329 507.098C134.769 507.098 133.642 506.396 133.642 505.03C133.642 503.553 134.953 503.026 136.551 502.814C137.446 502.694 139.57 502.454 139.967 502.057V503.885C139.967 505.565 138.628 507.098 136.329 507.098ZM146.144 509H148.905V494.818H146.144V509ZM147.539 492.63C148.49 492.63 149.284 491.891 149.284 490.987C149.284 490.082 148.49 489.334 147.539 489.334C146.578 489.334 145.794 490.082 145.794 490.987C145.794 491.891 146.578 492.63 147.539 492.63ZM155.12 490.091H152.359V509H155.12V490.091ZM169.201 498.281C168.628 496.074 166.902 494.634 163.836 494.634C160.633 494.634 158.361 496.323 158.361 498.835C158.361 500.847 159.58 502.186 162.239 502.777L164.64 503.303C166.006 503.608 166.643 504.217 166.643 505.104C166.643 506.202 165.471 507.061 163.661 507.061C162.008 507.061 160.947 506.35 160.614 504.956L157.946 505.362C158.407 507.874 160.494 509.286 163.679 509.286C167.105 509.286 169.478 507.467 169.478 504.901C169.478 502.897 168.204 501.66 165.6 501.06L163.347 500.543C161.787 500.173 161.113 499.647 161.122 498.687C161.113 497.597 162.295 496.822 163.864 496.822C165.581 496.822 166.375 497.773 166.699 498.724L169.201 498.281ZM178.227 509.286C181.578 509.286 183.748 507.273 184.053 504.513H181.366C181.015 506.045 179.824 506.95 178.245 506.95C175.909 506.95 174.404 505.002 174.404 501.909C174.404 498.871 175.937 496.96 178.245 496.96C180 496.96 181.071 498.068 181.366 499.398H184.053C183.757 496.536 181.421 494.634 178.199 494.634C174.201 494.634 171.616 497.643 171.616 501.974C171.616 506.249 174.109 509.286 178.227 509.286ZM190.872 509.314C193.217 509.314 194.538 508.123 195.064 507.061H195.175V509H197.871V499.582C197.871 495.455 194.621 494.634 192.368 494.634C189.801 494.634 187.438 495.668 186.514 498.253L189.109 498.844C189.515 497.837 190.549 496.868 192.405 496.868C194.187 496.868 195.101 497.8 195.101 499.407V499.472C195.101 500.478 194.067 500.46 191.518 500.755C188.832 501.069 186.08 501.771 186.08 504.993C186.08 507.781 188.176 509.314 190.872 509.314ZM191.472 507.098C189.912 507.098 188.786 506.396 188.786 505.03C188.786 503.553 190.097 503.026 191.694 502.814C192.59 502.694 194.713 502.454 195.11 502.057V503.885C195.11 505.565 193.771 507.098 191.472 507.098ZM204.048 490.091H201.288V509H204.048V490.091ZM213.615 509.286C216.708 509.286 218.896 507.763 219.524 505.455L216.911 504.984C216.412 506.322 215.212 507.006 213.642 507.006C211.279 507.006 209.691 505.473 209.617 502.74H219.699V501.761C219.699 496.637 216.634 494.634 213.421 494.634C209.469 494.634 206.865 497.643 206.865 502.001C206.865 506.406 209.432 509.286 213.615 509.286ZM209.626 500.672C209.737 498.659 211.196 496.914 213.439 496.914C215.581 496.914 216.985 498.502 216.994 500.672H209.626ZM245.05 496.24C244.404 492.196 241.237 489.832 237.239 489.832C232.345 489.832 228.735 493.498 228.735 499.545C228.735 505.593 232.327 509.259 237.239 509.259C241.394 509.259 244.431 506.655 245.05 502.915L242.169 502.906C241.68 505.325 239.649 506.655 237.257 506.655C234.016 506.655 231.57 504.171 231.57 499.545C231.57 494.957 234.007 492.436 237.266 492.436C239.676 492.436 241.698 493.793 242.169 496.24H245.05ZM250.743 490.091H247.982V509H250.743V490.091ZM254.197 509H256.957V494.818H254.197V509ZM255.591 492.63C256.542 492.63 257.336 491.891 257.336 490.987C257.336 490.082 256.542 489.334 255.591 489.334C254.631 489.334 253.846 490.082 253.846 490.987C253.846 491.891 254.631 492.63 255.591 492.63ZM266.524 509.286C269.617 509.286 271.805 507.763 272.433 505.455L269.82 504.984C269.321 506.322 268.121 507.006 266.551 507.006C264.188 507.006 262.6 505.473 262.526 502.74H272.608V501.761C272.608 496.637 269.543 494.634 266.33 494.634C262.378 494.634 259.774 497.643 259.774 502.001C259.774 506.406 262.341 509.286 266.524 509.286ZM262.535 500.672C262.646 498.659 264.105 496.914 266.348 496.914C268.49 496.914 269.894 498.502 269.903 500.672H262.535ZM278.172 500.58C278.172 498.317 279.557 497.025 281.477 497.025C283.351 497.025 284.487 498.253 284.487 500.312V509H287.248V499.979C287.248 496.471 285.318 494.634 282.419 494.634C280.286 494.634 278.892 495.621 278.236 497.126H278.061V494.818H275.411V509H278.172V500.58ZM297.31 494.818H294.402V491.42H291.641V494.818H289.564V497.034H291.641V505.408C291.632 507.984 293.599 509.231 295.778 509.185C296.655 509.175 297.246 509.009 297.569 508.889L297.07 506.609C296.886 506.646 296.544 506.729 296.101 506.729C295.205 506.729 294.402 506.433 294.402 504.836V497.034H297.31V494.818Z" fill="#242424"></path>
<circle cx="448" cy="499.5" r="13" fill="#343433"></circle>
<circle cx="448" cy="500" r="5" fill="#4D78C8"></circle>
<path d="M222.933 576H225.699V570.407H228.518L231.516 576H234.603L231.3 569.945C233.097 569.221 234.044 567.685 234.044 565.612C234.044 562.696 232.165 560.727 228.66 560.727H222.933V576ZM225.699 568.11V563.039H228.235C230.301 563.039 231.225 563.986 231.225 565.612C231.225 567.238 230.301 568.11 228.25 568.11H225.699ZM241.379 576.224C244.048 576.224 245.883 574.919 246.36 572.928L243.839 572.644C243.474 573.614 242.579 574.121 241.416 574.121C239.671 574.121 238.515 572.972 238.492 571.011H246.472V570.183C246.472 566.164 244.056 564.396 241.237 564.396C237.956 564.396 235.815 566.805 235.815 570.34C235.815 573.934 237.926 576.224 241.379 576.224ZM238.5 569.191C238.582 567.73 239.663 566.499 241.274 566.499C242.825 566.499 243.869 567.633 243.884 569.191H238.5ZM248.756 576H251.455V569.035C251.455 567.625 252.395 566.671 253.558 566.671C254.699 566.671 255.482 567.439 255.482 568.617V576H258.13V568.856C258.13 567.566 258.898 566.671 260.203 566.671C261.292 566.671 262.157 567.312 262.157 568.729V576H264.864V568.311C264.864 565.754 263.387 564.396 261.284 564.396C259.621 564.396 258.353 565.217 257.846 566.492H257.727C257.287 565.194 256.176 564.396 254.632 564.396C253.096 564.396 251.947 565.187 251.47 566.492H251.336V564.545H248.756V576ZM272.599 576.224C275.955 576.224 278.087 573.86 278.087 570.317C278.087 566.768 275.955 564.396 272.599 564.396C269.243 564.396 267.11 566.768 267.11 570.317C267.11 573.86 269.243 576.224 272.599 576.224ZM272.614 574.061C270.757 574.061 269.847 572.406 269.847 570.31C269.847 568.214 270.757 566.537 272.614 566.537C274.441 566.537 275.351 568.214 275.351 570.31C275.351 572.406 274.441 574.061 272.614 574.061ZM286.099 564.545H283.839V561.801H281.139V564.545H279.514V566.634H281.139V573.002C281.125 575.157 282.691 576.216 284.719 576.157C285.487 576.134 286.017 575.985 286.307 575.888L285.852 573.778C285.703 573.815 285.398 573.882 285.062 573.882C284.383 573.882 283.839 573.643 283.839 572.555V566.634H286.099V564.545ZM293.304 576.224C295.974 576.224 297.809 574.919 298.286 572.928L295.765 572.644C295.4 573.614 294.505 574.121 293.342 574.121C291.597 574.121 290.441 572.972 290.418 571.011H298.398V570.183C298.398 566.164 295.981 564.396 293.163 564.396C289.881 564.396 287.741 566.805 287.741 570.34C287.741 573.934 289.852 576.224 293.304 576.224ZM290.426 569.191C290.508 567.73 291.589 566.499 293.2 566.499C294.751 566.499 295.795 567.633 295.81 569.191H290.426ZM315.645 560.727V570.757C315.645 572.644 314.131 573.74 312.207 573.74C310.29 573.74 308.777 572.644 308.777 570.757V560.727H306.01V570.825C306.01 574.285 308.665 576.231 312.207 576.231C315.734 576.231 318.404 574.285 318.404 570.825V560.727H315.645ZM330.345 567.573C329.972 565.634 328.421 564.396 325.736 564.396C322.977 564.396 321.098 565.754 321.105 567.871C321.098 569.542 322.127 570.646 324.327 571.1L326.281 571.511C327.332 571.742 327.825 572.167 327.825 572.816C327.825 573.599 326.974 574.188 325.692 574.188C324.454 574.188 323.648 573.651 323.417 572.622L320.785 572.875C321.12 574.978 322.888 576.224 325.699 576.224C328.563 576.224 330.584 574.74 330.591 572.57C330.584 570.936 329.532 569.937 327.37 569.467L325.416 569.05C324.252 568.789 323.79 568.386 323.798 567.722C323.79 566.947 324.648 566.41 325.774 566.41C327.019 566.41 327.675 567.088 327.884 567.842L330.345 567.573ZM337.888 576.224C340.558 576.224 342.393 574.919 342.87 572.928L340.349 572.644C339.984 573.614 339.089 574.121 337.926 574.121C336.181 574.121 335.025 572.972 335.002 571.011H342.982V570.183C342.982 566.164 340.565 564.396 337.747 564.396C334.465 564.396 332.325 566.805 332.325 570.34C332.325 573.934 334.436 576.224 337.888 576.224ZM335.01 569.191C335.092 567.73 336.173 566.499 337.784 566.499C339.335 566.499 340.379 567.633 340.394 569.191H335.01ZM345.265 576H347.965V569.266C347.965 567.819 349.054 566.798 350.463 566.798C350.903 566.798 351.239 566.902 351.53 567.036L352.365 564.799C351.962 564.545 351.448 564.381 350.829 564.381C349.509 564.381 348.42 565.127 348.002 566.455H347.883V564.545H345.265V576Z" fill="#9F9995"></path>
<rect x="75" y="618" width="426" height="208" rx="24" fill="#EEECEA"></rect>
<path d="M99 658C99 649.163 106.163 642 115 642H461C469.837 642 477 649.163 477 658V679C477 687.837 469.837 695 461 695H115C106.163 695 99 687.837 99 679V658Z" fill="#D6CFCC"></path>
<path d="M116.145 661.547H122.036V678H124.879V661.547H130.779V659.091H116.145V661.547ZM135.729 678.314C138.074 678.314 139.394 677.123 139.921 676.061H140.031V678H142.727V668.582C142.727 664.455 139.477 663.634 137.225 663.634C134.658 663.634 132.294 664.668 131.371 667.253L133.965 667.844C134.372 666.837 135.406 665.868 137.261 665.868C139.043 665.868 139.958 666.8 139.958 668.407V668.472C139.958 669.478 138.923 669.46 136.375 669.755C133.688 670.069 130.937 670.771 130.937 673.993C130.937 676.781 133.033 678.314 135.729 678.314ZM136.329 676.098C134.769 676.098 133.642 675.396 133.642 674.03C133.642 672.553 134.953 672.026 136.551 671.814C137.446 671.694 139.57 671.454 139.967 671.057V672.885C139.967 674.565 138.628 676.098 136.329 676.098ZM146.144 678H148.905V663.818H146.144V678ZM147.539 661.63C148.49 661.63 149.284 660.891 149.284 659.987C149.284 659.082 148.49 658.334 147.539 658.334C146.578 658.334 145.794 659.082 145.794 659.987C145.794 660.891 146.578 661.63 147.539 661.63ZM155.12 659.091H152.359V678H155.12V659.091ZM169.201 667.281C168.628 665.074 166.902 663.634 163.836 663.634C160.633 663.634 158.361 665.323 158.361 667.835C158.361 669.847 159.58 671.186 162.239 671.777L164.64 672.303C166.006 672.608 166.643 673.217 166.643 674.104C166.643 675.202 165.471 676.061 163.661 676.061C162.008 676.061 160.947 675.35 160.614 673.956L157.946 674.362C158.407 676.874 160.494 678.286 163.679 678.286C167.105 678.286 169.478 676.467 169.478 673.901C169.478 671.897 168.204 670.66 165.6 670.06L163.347 669.543C161.787 669.173 161.113 668.647 161.122 667.687C161.113 666.597 162.295 665.822 163.864 665.822C165.581 665.822 166.375 666.773 166.699 667.724L169.201 667.281ZM178.227 678.286C181.578 678.286 183.748 676.273 184.053 673.513H181.366C181.015 675.045 179.824 675.95 178.245 675.95C175.909 675.95 174.404 674.002 174.404 670.909C174.404 667.871 175.937 665.96 178.245 665.96C180 665.96 181.071 667.068 181.366 668.398H184.053C183.757 665.536 181.421 663.634 178.199 663.634C174.201 663.634 171.616 666.643 171.616 670.974C171.616 675.249 174.109 678.286 178.227 678.286ZM190.872 678.314C193.217 678.314 194.538 677.123 195.064 676.061H195.175V678H197.871V668.582C197.871 664.455 194.621 663.634 192.368 663.634C189.801 663.634 187.438 664.668 186.514 667.253L189.109 667.844C189.515 666.837 190.549 665.868 192.405 665.868C194.187 665.868 195.101 666.8 195.101 668.407V668.472C195.101 669.478 194.067 669.46 191.518 669.755C188.832 670.069 186.08 670.771 186.08 673.993C186.08 676.781 188.176 678.314 190.872 678.314ZM191.472 676.098C189.912 676.098 188.786 675.396 188.786 674.03C188.786 672.553 190.097 672.026 191.694 671.814C192.59 671.694 194.713 671.454 195.11 671.057V672.885C195.11 674.565 193.771 676.098 191.472 676.098ZM204.048 659.091H201.288V678H204.048V659.091ZM213.615 678.286C216.708 678.286 218.896 676.763 219.524 674.455L216.911 673.984C216.412 675.322 215.212 676.006 213.642 676.006C211.279 676.006 209.691 674.473 209.617 671.74H219.699V670.761C219.699 665.637 216.634 663.634 213.421 663.634C209.469 663.634 206.865 666.643 206.865 671.001C206.865 675.406 209.432 678.286 213.615 678.286ZM209.626 669.672C209.737 667.659 211.196 665.914 213.439 665.914C215.581 665.914 216.985 667.502 216.994 669.672H209.626ZM245.05 665.24C244.404 661.196 241.237 658.832 237.239 658.832C232.345 658.832 228.735 662.498 228.735 668.545C228.735 674.593 232.327 678.259 237.239 678.259C241.394 678.259 244.431 675.655 245.05 671.915L242.169 671.906C241.68 674.325 239.649 675.655 237.257 675.655C234.016 675.655 231.57 673.171 231.57 668.545C231.57 663.957 234.007 661.436 237.266 661.436C239.676 661.436 241.698 662.793 242.169 665.24H245.05ZM250.743 659.091H247.982V678H250.743V659.091ZM254.197 678H256.957V663.818H254.197V678ZM255.591 661.63C256.542 661.63 257.336 660.891 257.336 659.987C257.336 659.082 256.542 658.334 255.591 658.334C254.631 658.334 253.846 659.082 253.846 659.987C253.846 660.891 254.631 661.63 255.591 661.63ZM266.524 678.286C269.617 678.286 271.805 676.763 272.433 674.455L269.82 673.984C269.321 675.322 268.121 676.006 266.551 676.006C264.188 676.006 262.6 674.473 262.526 671.74H272.608V670.761C272.608 665.637 269.543 663.634 266.33 663.634C262.378 663.634 259.774 666.643 259.774 671.001C259.774 675.406 262.341 678.286 266.524 678.286ZM262.535 669.672C262.646 667.659 264.105 665.914 266.348 665.914C268.49 665.914 269.894 667.502 269.903 669.672H262.535ZM278.172 669.58C278.172 667.317 279.557 666.025 281.477 666.025C283.351 666.025 284.487 667.253 284.487 669.312V678H287.248V668.979C287.248 665.471 285.318 663.634 282.419 663.634C280.286 663.634 278.892 664.621 278.236 666.126H278.061V663.818H275.411V678H278.172V669.58ZM297.31 663.818H294.402V660.42H291.641V663.818H289.564V666.034H291.641V674.408C291.632 676.984 293.599 678.231 295.778 678.185C296.655 678.175 297.246 678.009 297.569 677.889L297.07 675.609C296.886 675.646 296.544 675.729 296.101 675.729C295.205 675.729 294.402 675.433 294.402 673.836V666.034H297.31V663.818Z" fill="#242424"></path>
<circle cx="448" cy="668.5" r="13" fill="#343433"></circle>
<circle cx="448" cy="669" r="5" fill="#4D78C8"></circle>
<path d="M99 721C99 712.163 106.163 705 115 705H461C469.837 705 477 712.163 477 721V742C477 750.837 469.837 758 461 758H115C106.163 758 99 750.837 99 742V721Z" fill="#D6CFCC"></path>
<path d="M116.145 724.547H122.036V741H124.879V724.547H130.779V722.091H116.145V724.547ZM135.729 741.314C138.074 741.314 139.394 740.123 139.921 739.061H140.031V741H142.727V731.582C142.727 727.455 139.477 726.634 137.225 726.634C134.658 726.634 132.294 727.668 131.371 730.253L133.965 730.844C134.372 729.837 135.406 728.868 137.261 728.868C139.043 728.868 139.958 729.8 139.958 731.407V731.472C139.958 732.478 138.923 732.46 136.375 732.755C133.688 733.069 130.937 733.771 130.937 736.993C130.937 739.781 133.033 741.314 135.729 741.314ZM136.329 739.098C134.769 739.098 133.642 738.396 133.642 737.03C133.642 735.553 134.953 735.026 136.551 734.814C137.446 734.694 139.57 734.454 139.967 734.057V735.885C139.967 737.565 138.628 739.098 136.329 739.098ZM146.144 741H148.905V726.818H146.144V741ZM147.539 724.63C148.49 724.63 149.284 723.891 149.284 722.987C149.284 722.082 148.49 721.334 147.539 721.334C146.578 721.334 145.794 722.082 145.794 722.987C145.794 723.891 146.578 724.63 147.539 724.63ZM155.12 722.091H152.359V741H155.12V722.091ZM169.201 730.281C168.628 728.074 166.902 726.634 163.836 726.634C160.633 726.634 158.361 728.323 158.361 730.835C158.361 732.847 159.58 734.186 162.239 734.777L164.64 735.303C166.006 735.608 166.643 736.217 166.643 737.104C166.643 738.202 165.471 739.061 163.661 739.061C162.008 739.061 160.947 738.35 160.614 736.956L157.946 737.362C158.407 739.874 160.494 741.286 163.679 741.286C167.105 741.286 169.478 739.467 169.478 736.901C169.478 734.897 168.204 733.66 165.6 733.06L163.347 732.543C161.787 732.173 161.113 731.647 161.122 730.687C161.113 729.597 162.295 728.822 163.864 728.822C165.581 728.822 166.375 729.773 166.699 730.724L169.201 730.281ZM178.227 741.286C181.578 741.286 183.748 739.273 184.053 736.513H181.366C181.015 738.045 179.824 738.95 178.245 738.95C175.909 738.95 174.404 737.002 174.404 733.909C174.404 730.871 175.937 728.96 178.245 728.96C180 728.96 181.071 730.068 181.366 731.398H184.053C183.757 728.536 181.421 726.634 178.199 726.634C174.201 726.634 171.616 729.643 171.616 733.974C171.616 738.249 174.109 741.286 178.227 741.286ZM190.872 741.314C193.217 741.314 194.538 740.123 195.064 739.061H195.175V741H197.871V731.582C197.871 727.455 194.621 726.634 192.368 726.634C189.801 726.634 187.438 727.668 186.514 730.253L189.109 730.844C189.515 729.837 190.549 728.868 192.405 728.868C194.187 728.868 195.101 729.8 195.101 731.407V731.472C195.101 732.478 194.067 732.46 191.518 732.755C188.832 733.069 186.08 733.771 186.08 736.993C186.08 739.781 188.176 741.314 190.872 741.314ZM191.472 739.098C189.912 739.098 188.786 738.396 188.786 737.03C188.786 735.553 190.097 735.026 191.694 734.814C192.59 734.694 194.713 734.454 195.11 734.057V735.885C195.11 737.565 193.771 739.098 191.472 739.098ZM204.048 722.091H201.288V741H204.048V722.091ZM213.615 741.286C216.708 741.286 218.896 739.763 219.524 737.455L216.911 736.984C216.412 738.322 215.212 739.006 213.642 739.006C211.279 739.006 209.691 737.473 209.617 734.74H219.699V733.761C219.699 728.637 216.634 726.634 213.421 726.634C209.469 726.634 206.865 729.643 206.865 734.001C206.865 738.406 209.432 741.286 213.615 741.286ZM209.626 732.672C209.737 730.659 211.196 728.914 213.439 728.914C215.581 728.914 216.985 730.502 216.994 732.672H209.626ZM245.05 728.24C244.404 724.196 241.237 721.832 237.239 721.832C232.345 721.832 228.735 725.498 228.735 731.545C228.735 737.593 232.327 741.259 237.239 741.259C241.394 741.259 244.431 738.655 245.05 734.915L242.169 734.906C241.68 737.325 239.649 738.655 237.257 738.655C234.016 738.655 231.57 736.171 231.57 731.545C231.57 726.957 234.007 724.436 237.266 724.436C239.676 724.436 241.698 725.793 242.169 728.24H245.05ZM250.743 722.091H247.982V741H250.743V722.091ZM254.197 741H256.957V726.818H254.197V741ZM255.591 724.63C256.542 724.63 257.336 723.891 257.336 722.987C257.336 722.082 256.542 721.334 255.591 721.334C254.631 721.334 253.846 722.082 253.846 722.987C253.846 723.891 254.631 724.63 255.591 724.63ZM266.524 741.286C269.617 741.286 271.805 739.763 272.433 737.455L269.82 736.984C269.321 738.322 268.121 739.006 266.551 739.006C264.188 739.006 262.6 737.473 262.526 734.74H272.608V733.761C272.608 728.637 269.543 726.634 266.33 726.634C262.378 726.634 259.774 729.643 259.774 734.001C259.774 738.406 262.341 741.286 266.524 741.286ZM262.535 732.672C262.646 730.659 264.105 728.914 266.348 728.914C268.49 728.914 269.894 730.502 269.903 732.672H262.535ZM278.172 732.58C278.172 730.317 279.557 729.025 281.477 729.025C283.351 729.025 284.487 730.253 284.487 732.312V741H287.248V731.979C287.248 728.471 285.318 726.634 282.419 726.634C280.286 726.634 278.892 727.621 278.236 729.126H278.061V726.818H275.411V741H278.172V732.58ZM297.31 726.818H294.402V723.42H291.641V726.818H289.564V729.034H291.641V737.408C291.632 739.984 293.599 741.231 295.778 741.185C296.655 741.175 297.246 741.009 297.569 740.889L297.07 738.609C296.886 738.646 296.544 738.729 296.101 738.729C295.205 738.729 294.402 738.433 294.402 736.836V729.034H297.31V726.818Z" fill="#242424"></path>
<circle cx="448" cy="731.5" r="13" fill="#343433"></circle>
<circle cx="448" cy="732" r="5" fill="#4D78C8"></circle>
<path d="M218.688 808H224.87C228.367 808 230.082 806.218 230.082 803.839C230.082 801.527 228.442 800.17 226.816 800.088V799.939C228.308 799.588 229.486 798.544 229.486 796.687C229.486 794.413 227.845 792.727 224.534 792.727H218.688V808ZM221.454 805.688V801.214H224.504C226.212 801.214 227.271 802.258 227.271 803.623C227.271 804.838 226.436 805.688 224.43 805.688H221.454ZM221.454 799.223V795.009H224.251C225.876 795.009 226.719 795.867 226.719 797.045C226.719 798.387 225.63 799.223 224.191 799.223H221.454ZM232.37 808H235.07V801.266C235.07 799.819 236.158 798.798 237.568 798.798C238.008 798.798 238.343 798.902 238.634 799.036L239.469 796.799C239.067 796.545 238.552 796.381 237.933 796.381C236.613 796.381 235.524 797.127 235.107 798.455H234.988V796.545H232.37V808ZM244.136 808.231C245.933 808.231 247.007 807.388 247.499 806.426H247.589V808H250.184V800.334C250.184 797.306 247.715 796.396 245.53 796.396C243.122 796.396 241.272 797.47 240.676 799.558L243.196 799.916C243.465 799.133 244.225 798.462 245.545 798.462C246.798 798.462 247.484 799.103 247.484 800.229V800.274C247.484 801.05 246.671 801.087 244.65 801.303C242.428 801.542 240.303 802.206 240.303 804.786C240.303 807.038 241.951 808.231 244.136 808.231ZM244.837 806.248C243.711 806.248 242.905 805.733 242.905 804.741C242.905 803.705 243.808 803.272 245.016 803.1C245.724 803.004 247.141 802.825 247.492 802.541V803.891C247.492 805.166 246.463 806.248 244.837 806.248ZM255.598 801.288C255.598 799.633 256.597 798.678 258.022 798.678C259.416 798.678 260.251 799.596 260.251 801.124V808H262.951V800.707C262.958 797.962 261.392 796.396 259.028 796.396C257.313 796.396 256.135 797.217 255.613 798.492H255.479V796.545H252.898V808H255.598V801.288ZM270.692 808.224C273.57 808.224 275.405 806.516 275.599 804.085H273.018C272.787 805.315 271.9 806.024 270.714 806.024C269.029 806.024 267.94 804.614 267.94 802.273C267.94 799.961 269.051 798.574 270.714 798.574C272.012 798.574 272.81 799.409 273.018 800.513H275.599C275.412 798.029 273.473 796.396 270.677 796.396C267.321 796.396 265.203 798.82 265.203 802.317C265.203 805.785 267.269 808.224 270.692 808.224ZM280.515 801.288C280.515 799.633 281.544 798.678 282.991 798.678C284.408 798.678 285.243 799.581 285.243 801.124V808H287.942V800.707C287.942 797.94 286.376 796.396 283.997 796.396C282.238 796.396 281.119 797.194 280.589 798.492H280.455V792.727H277.815V808H280.515V801.288ZM309.67 800.364C309.67 795.427 306.657 792.518 302.652 792.518C298.64 792.518 295.635 795.427 295.635 800.364C295.635 805.293 298.64 808.209 302.652 808.209C306.657 808.209 309.67 805.3 309.67 800.364ZM306.888 800.364C306.888 803.839 305.143 805.725 302.652 805.725C300.169 805.725 298.416 803.839 298.416 800.364C298.416 796.888 300.169 795.002 302.652 795.002C305.143 795.002 306.888 796.888 306.888 800.364ZM318.042 796.545H315.663V795.643C315.663 794.748 316.036 794.249 317.043 794.249C317.468 794.249 317.826 794.346 318.05 794.413L318.594 792.325C318.244 792.205 317.476 792.011 316.543 792.011C314.552 792.011 312.964 793.152 312.964 795.464V796.545H311.271V798.634H312.964V808H315.663V798.634H318.042V796.545ZM326.04 796.545H323.661V795.643C323.661 794.748 324.034 794.249 325.041 794.249C325.466 794.249 325.824 794.346 326.048 794.413L326.592 792.325C326.242 792.205 325.474 792.011 324.541 792.011C322.55 792.011 320.962 793.152 320.962 795.464V796.545H319.269V798.634H320.962V808H323.661V798.634H326.04V796.545ZM328.162 808H330.862V796.545H328.162V808ZM329.519 794.92C330.377 794.92 331.078 794.263 331.078 793.458C331.078 792.645 330.377 791.989 329.519 791.989C328.654 791.989 327.953 792.645 327.953 793.458C327.953 794.263 328.654 794.92 329.519 794.92ZM338.634 808.224C341.513 808.224 343.347 806.516 343.541 804.085H340.961C340.73 805.315 339.842 806.024 338.656 806.024C336.971 806.024 335.882 804.614 335.882 802.273C335.882 799.961 336.993 798.574 338.656 798.574C339.954 798.574 340.752 799.409 340.961 800.513H343.541C343.355 798.029 341.416 796.396 338.619 796.396C335.263 796.396 333.145 798.82 333.145 802.317C333.145 805.785 335.211 808.224 338.634 808.224ZM350.829 808.224C353.498 808.224 355.333 806.919 355.81 804.928L353.29 804.644C352.924 805.614 352.029 806.121 350.866 806.121C349.121 806.121 347.965 804.972 347.943 803.011H355.922V802.183C355.922 798.164 353.506 796.396 350.687 796.396C347.406 796.396 345.265 798.805 345.265 802.34C345.265 805.934 347.376 808.224 350.829 808.224ZM347.95 801.191C348.032 799.73 349.114 798.499 350.724 798.499C352.275 798.499 353.319 799.633 353.334 801.191H347.95Z" fill="#9F9995"></path>
<rect x="75" y="72" width="426" height="353" rx="24" fill="#EEECEA"></rect>
<path d="M235.506 388.727V404H238.161V393.485H238.303L242.524 403.955H244.507L248.728 393.507H248.87V404H251.525V388.727H248.139L243.605 399.794H243.426L238.892 388.727H235.506ZM258.002 404.231C259.799 404.231 260.873 403.388 261.365 402.426H261.454V404H264.05V396.334C264.05 393.306 261.581 392.396 259.396 392.396C256.987 392.396 255.138 393.47 254.541 395.558L257.062 395.916C257.33 395.133 258.091 394.462 259.411 394.462C260.664 394.462 261.35 395.103 261.35 396.229V396.274C261.35 397.05 260.537 397.087 258.516 397.303C256.294 397.542 254.169 398.206 254.169 400.786C254.169 403.038 255.817 404.231 258.002 404.231ZM258.703 402.248C257.577 402.248 256.771 401.733 256.771 400.741C256.771 399.705 257.673 399.272 258.882 399.1C259.59 399.004 261.007 398.825 261.357 398.541V399.891C261.357 401.166 260.328 402.248 258.703 402.248ZM266.764 404H269.464V392.545H266.764V404ZM268.121 390.92C268.979 390.92 269.68 390.263 269.68 389.458C269.68 388.645 268.979 387.989 268.121 387.989C267.256 387.989 266.555 388.645 266.555 389.458C266.555 390.263 267.256 390.92 268.121 390.92ZM274.939 397.288C274.939 395.633 275.938 394.678 277.363 394.678C278.757 394.678 279.593 395.596 279.593 397.124V404H282.292V396.707C282.3 393.962 280.734 392.396 278.37 392.396C276.654 392.396 275.476 393.217 274.954 394.492H274.82V392.545H272.24V404H274.939V397.288ZM304.012 396.364C304.012 391.427 300.999 388.518 296.994 388.518C292.982 388.518 289.977 391.427 289.977 396.364C289.977 401.293 292.982 404.209 296.994 404.209C300.999 404.209 304.012 401.3 304.012 396.364ZM301.23 396.364C301.23 399.839 299.485 401.725 296.994 401.725C294.511 401.725 292.759 399.839 292.759 396.364C292.759 392.888 294.511 391.002 296.994 391.002C299.485 391.002 301.23 392.888 301.23 396.364ZM312.385 392.545H310.006V391.643C310.006 390.748 310.379 390.249 311.385 390.249C311.81 390.249 312.168 390.346 312.392 390.413L312.936 388.325C312.586 388.205 311.818 388.011 310.886 388.011C308.895 388.011 307.306 389.152 307.306 391.464V392.545H305.613V394.634H307.306V404H310.006V394.634H312.385V392.545ZM320.383 392.545H318.004V391.643C318.004 390.748 318.377 390.249 319.383 390.249C319.808 390.249 320.166 390.346 320.39 390.413L320.934 388.325C320.584 388.205 319.816 388.011 318.884 388.011C316.893 388.011 315.304 389.152 315.304 391.464V392.545H313.611V394.634H315.304V404H318.004V394.634H320.383V392.545ZM322.504 404H325.204V392.545H322.504V404ZM323.862 390.92C324.719 390.92 325.42 390.263 325.42 389.458C325.42 388.645 324.719 387.989 323.862 387.989C322.996 387.989 322.295 388.645 322.295 389.458C322.295 390.263 322.996 390.92 323.862 390.92ZM332.976 404.224C335.855 404.224 337.689 402.516 337.883 400.085H335.303C335.072 401.315 334.184 402.024 332.999 402.024C331.313 402.024 330.225 400.614 330.225 398.273C330.225 395.961 331.336 394.574 332.999 394.574C334.296 394.574 335.094 395.409 335.303 396.513H337.883C337.697 394.029 335.758 392.396 332.961 392.396C329.606 392.396 327.488 394.82 327.488 398.317C327.488 401.785 329.553 404.224 332.976 404.224ZM345.171 404.224C347.841 404.224 349.675 402.919 350.153 400.928L347.632 400.644C347.267 401.614 346.372 402.121 345.208 402.121C343.463 402.121 342.307 400.972 342.285 399.011H350.264V398.183C350.264 394.164 347.848 392.396 345.029 392.396C341.748 392.396 339.608 394.805 339.608 398.34C339.608 401.934 341.718 404.224 345.171 404.224ZM342.292 397.191C342.374 395.73 343.456 394.499 345.067 394.499C346.618 394.499 347.662 395.633 347.677 397.191H342.292Z" fill="#9F9995"></path>
<rect x="99" y="96" width="378" height="128" rx="16" fill="#D6CFCC"></rect>
<path d="M118.675 202L120.411 196.996H127.797L129.523 202H132.552L125.747 183.091H122.451L115.646 202H118.675ZM121.241 194.595L124.03 186.526H124.178L126.966 194.595H121.241ZM140.546 202.286C143.898 202.286 146.067 200.273 146.372 197.513H143.685C143.334 199.045 142.143 199.95 140.565 199.95C138.229 199.95 136.724 198.002 136.724 194.909C136.724 191.871 138.256 189.96 140.565 189.96C142.319 189.96 143.39 191.068 143.685 192.398H146.372C146.077 189.536 143.741 187.634 140.518 187.634C136.521 187.634 133.935 190.643 133.935 194.974C133.935 199.249 136.428 202.286 140.546 202.286ZM155.684 187.818H152.776V184.42H150.015V187.818H147.938V190.034H150.015V198.408C150.006 200.984 151.973 202.231 154.152 202.185C155.029 202.175 155.62 202.009 155.943 201.889L155.444 199.609C155.26 199.646 154.918 199.729 154.475 199.729C153.579 199.729 152.776 199.433 152.776 197.836V190.034H155.684V187.818ZM158.478 202H161.239V187.818H158.478V202ZM159.872 185.63C160.823 185.63 161.617 184.891 161.617 183.987C161.617 183.082 160.823 182.334 159.872 182.334C158.912 182.334 158.127 183.082 158.127 183.987C158.127 184.891 158.912 185.63 159.872 185.63ZM176.825 187.818H173.861L170.279 198.732H170.131L166.539 187.818H163.576L168.728 202H171.682L176.825 187.818ZM184.764 202.286C187.857 202.286 190.045 200.763 190.673 198.455L188.06 197.984C187.561 199.322 186.361 200.006 184.791 200.006C182.428 200.006 180.84 198.473 180.766 195.74H190.848V194.761C190.848 189.637 187.783 187.634 184.57 187.634C180.618 187.634 178.014 190.643 178.014 195.001C178.014 199.406 180.581 202.286 184.764 202.286ZM180.775 193.672C180.886 191.659 182.345 189.914 184.588 189.914C186.73 189.914 188.134 191.502 188.143 193.672H180.775ZM206.615 202C212.377 202 215.71 198.427 215.71 192.518C215.71 186.636 212.377 183.091 206.809 183.091H200.494V202H206.615ZM203.347 199.507V185.584H206.634C210.77 185.584 212.903 188.058 212.903 192.518C212.903 196.996 210.77 199.507 206.458 199.507H203.347ZM218.776 202H221.536V187.818H218.776V202ZM220.17 185.63C221.121 185.63 221.915 184.891 221.915 183.987C221.915 183.082 221.121 182.334 220.17 182.334C219.21 182.334 218.425 183.082 218.425 183.987C218.425 184.891 219.21 185.63 220.17 185.63ZM224.99 202H227.751V193.339C227.751 191.493 229.182 190.154 231.093 190.154C231.629 190.154 232.044 190.265 232.377 190.431L233.263 188.123C232.792 187.809 232.183 187.606 231.407 187.606C229.727 187.606 228.324 188.548 227.806 190.071H227.659V187.818H224.99V202ZM240.694 202.286C243.787 202.286 245.975 200.763 246.603 198.455L243.99 197.984C243.492 199.322 242.292 200.006 240.722 200.006C238.358 200.006 236.77 198.473 236.696 195.74H246.779V194.761C246.779 189.637 243.713 187.634 240.5 187.634C236.549 187.634 233.945 190.643 233.945 195.001C233.945 199.406 236.512 202.286 240.694 202.286ZM236.706 193.672C236.816 191.659 238.275 189.914 240.519 189.914C242.661 189.914 244.064 191.502 244.073 193.672H236.706ZM255.555 202.286C258.907 202.286 261.077 200.273 261.381 197.513H258.695C258.344 199.045 257.153 199.95 255.574 199.95C253.238 199.95 251.733 198.002 251.733 194.909C251.733 191.871 253.266 189.96 255.574 189.96C257.328 189.96 258.399 191.068 258.695 192.398H261.381C261.086 189.536 258.75 187.634 255.528 187.634C251.53 187.634 248.945 190.643 248.945 194.974C248.945 199.249 251.438 202.286 255.555 202.286ZM270.694 187.818H267.785V184.42H265.025V187.818H262.947V190.034H265.025V198.408C265.015 200.984 266.982 202.231 269.161 202.185C270.038 202.175 270.629 202.009 270.952 201.889L270.454 199.609C270.269 199.646 269.927 199.729 269.484 199.729C268.589 199.729 267.785 199.433 267.785 197.836V190.034H270.694V187.818ZM279.309 202.286C283.307 202.286 285.92 199.359 285.92 194.974C285.92 190.56 283.307 187.634 279.309 187.634C275.311 187.634 272.698 190.56 272.698 194.974C272.698 199.359 275.311 202.286 279.309 202.286ZM279.318 199.969C276.705 199.969 275.486 197.688 275.486 194.964C275.486 192.25 276.705 189.942 279.318 189.942C281.913 189.942 283.131 192.25 283.131 194.964C283.131 197.688 281.913 199.969 279.318 199.969ZM288.741 202H291.502V193.339C291.502 191.484 292.933 190.145 294.89 190.145C295.463 190.145 296.109 190.246 296.331 190.311V187.67C296.054 187.634 295.509 187.606 295.158 187.606C293.496 187.606 292.074 188.548 291.557 190.071H291.41V187.818H288.741V202ZM300.535 207.512C302.825 207.512 304.311 206.275 305.114 204.068L311.023 187.818H308.06L304.468 198.824H304.32L300.729 187.818H297.774L302.963 202.185L302.557 203.302C301.864 205.148 300.876 205.305 299.353 204.899L298.688 207.189C298.984 207.327 299.676 207.512 300.535 207.512Z" fill="#242424"></path>
<path d="M99 252C99 243.163 106.163 236 115 236H461C469.837 236 477 243.163 477 252V273C477 281.837 469.837 289 461 289H115C106.163 289 99 281.837 99 273V252Z" fill="#D6CFCC"></path>
<path d="M116.145 255.547H122.036V272H124.879V255.547H130.779V253.091H116.145V255.547ZM135.729 272.314C138.074 272.314 139.394 271.123 139.921 270.061H140.031V272H142.727V262.582C142.727 258.455 139.477 257.634 137.225 257.634C134.658 257.634 132.294 258.668 131.371 261.253L133.965 261.844C134.372 260.837 135.406 259.868 137.261 259.868C139.043 259.868 139.958 260.8 139.958 262.407V262.472C139.958 263.478 138.923 263.46 136.375 263.755C133.688 264.069 130.937 264.771 130.937 267.993C130.937 270.781 133.033 272.314 135.729 272.314ZM136.329 270.098C134.769 270.098 133.642 269.396 133.642 268.03C133.642 266.553 134.953 266.026 136.551 265.814C137.446 265.694 139.57 265.454 139.967 265.057V266.885C139.967 268.565 138.628 270.098 136.329 270.098ZM146.144 272H148.905V257.818H146.144V272ZM147.539 255.63C148.49 255.63 149.284 254.891 149.284 253.987C149.284 253.082 148.49 252.334 147.539 252.334C146.578 252.334 145.794 253.082 145.794 253.987C145.794 254.891 146.578 255.63 147.539 255.63ZM155.12 253.091H152.359V272H155.12V253.091ZM169.201 261.281C168.628 259.074 166.902 257.634 163.836 257.634C160.633 257.634 158.361 259.323 158.361 261.835C158.361 263.847 159.58 265.186 162.239 265.777L164.64 266.303C166.006 266.608 166.643 267.217 166.643 268.104C166.643 269.202 165.471 270.061 163.661 270.061C162.008 270.061 160.947 269.35 160.614 267.956L157.946 268.362C158.407 270.874 160.494 272.286 163.679 272.286C167.105 272.286 169.478 270.467 169.478 267.901C169.478 265.897 168.204 264.66 165.6 264.06L163.347 263.543C161.787 263.173 161.113 262.647 161.122 261.687C161.113 260.597 162.295 259.822 163.864 259.822C165.581 259.822 166.375 260.773 166.699 261.724L169.201 261.281ZM178.227 272.286C181.578 272.286 183.748 270.273 184.053 267.513H181.366C181.015 269.045 179.824 269.95 178.245 269.95C175.909 269.95 174.404 268.002 174.404 264.909C174.404 261.871 175.937 259.96 178.245 259.96C180 259.96 181.071 261.068 181.366 262.398H184.053C183.757 259.536 181.421 257.634 178.199 257.634C174.201 257.634 171.616 260.643 171.616 264.974C171.616 269.249 174.109 272.286 178.227 272.286ZM190.872 272.314C193.217 272.314 194.538 271.123 195.064 270.061H195.175V272H197.871V262.582C197.871 258.455 194.621 257.634 192.368 257.634C189.801 257.634 187.438 258.668 186.514 261.253L189.109 261.844C189.515 260.837 190.549 259.868 192.405 259.868C194.187 259.868 195.101 260.8 195.101 262.407V262.472C195.101 263.478 194.067 263.46 191.518 263.755C188.832 264.069 186.08 264.771 186.08 267.993C186.08 270.781 188.176 272.314 190.872 272.314ZM191.472 270.098C189.912 270.098 188.786 269.396 188.786 268.03C188.786 266.553 190.097 266.026 191.694 265.814C192.59 265.694 194.713 265.454 195.11 265.057V266.885C195.11 268.565 193.771 270.098 191.472 270.098ZM204.048 253.091H201.288V272H204.048V253.091ZM213.615 272.286C216.708 272.286 218.896 270.763 219.524 268.455L216.911 267.984C216.412 269.322 215.212 270.006 213.642 270.006C211.279 270.006 209.691 268.473 209.617 265.74H219.699V264.761C219.699 259.637 216.634 257.634 213.421 257.634C209.469 257.634 206.865 260.643 206.865 265.001C206.865 269.406 209.432 272.286 213.615 272.286ZM209.626 263.672C209.737 261.659 211.196 259.914 213.439 259.914C215.581 259.914 216.985 261.502 216.994 263.672H209.626ZM245.05 259.24C244.404 255.196 241.237 252.832 237.239 252.832C232.345 252.832 228.735 256.498 228.735 262.545C228.735 268.593 232.327 272.259 237.239 272.259C241.394 272.259 244.431 269.655 245.05 265.915L242.169 265.906C241.68 268.325 239.649 269.655 237.257 269.655C234.016 269.655 231.57 267.171 231.57 262.545C231.57 257.957 234.007 255.436 237.266 255.436C239.676 255.436 241.698 256.793 242.169 259.24H245.05ZM250.743 253.091H247.982V272H250.743V253.091ZM254.197 272H256.957V257.818H254.197V272ZM255.591 255.63C256.542 255.63 257.336 254.891 257.336 253.987C257.336 253.082 256.542 252.334 255.591 252.334C254.631 252.334 253.846 253.082 253.846 253.987C253.846 254.891 254.631 255.63 255.591 255.63ZM266.524 272.286C269.617 272.286 271.805 270.763 272.433 268.455L269.82 267.984C269.321 269.322 268.121 270.006 266.551 270.006C264.188 270.006 262.6 268.473 262.526 265.74H272.608V264.761C272.608 259.637 269.543 257.634 266.33 257.634C262.378 257.634 259.774 260.643 259.774 265.001C259.774 269.406 262.341 272.286 266.524 272.286ZM262.535 263.672C262.646 261.659 264.105 259.914 266.348 259.914C268.49 259.914 269.894 261.502 269.903 263.672H262.535ZM278.172 263.58C278.172 261.317 279.557 260.025 281.477 260.025C283.351 260.025 284.487 261.253 284.487 263.312V272H287.248V262.979C287.248 259.471 285.318 257.634 282.419 257.634C280.286 257.634 278.892 258.621 278.236 260.126H278.061V257.818H275.411V272H278.172V263.58ZM297.31 257.818H294.402V254.42H291.641V257.818H289.564V260.034H291.641V268.408C291.632 270.984 293.599 272.231 295.778 272.185C296.655 272.175 297.246 272.009 297.569 271.889L297.07 269.609C296.886 269.646 296.544 269.729 296.101 269.729C295.205 269.729 294.402 269.433 294.402 267.836V260.034H297.31V257.818Z" fill="#242424"></path>
<circle cx="448" cy="262.5" r="13" fill="#343433"></circle>
<circle cx="448" cy="263" r="5" fill="#4D78C8"></circle>
<path d="M99 317C99 308.163 106.163 301 115 301H461C469.837 301 477 308.163 477 317V338C477 346.837 469.837 354 461 354H115C106.163 354 99 346.837 99 338V317Z" fill="#D6CFCC"></path>
<path d="M116.145 320.547H122.036V337H124.879V320.547H130.779V318.091H116.145V320.547ZM135.729 337.314C138.074 337.314 139.394 336.123 139.921 335.061H140.031V337H142.727V327.582C142.727 323.455 139.477 322.634 137.225 322.634C134.658 322.634 132.294 323.668 131.371 326.253L133.965 326.844C134.372 325.837 135.406 324.868 137.261 324.868C139.043 324.868 139.958 325.8 139.958 327.407V327.472C139.958 328.478 138.923 328.46 136.375 328.755C133.688 329.069 130.937 329.771 130.937 332.993C130.937 335.781 133.033 337.314 135.729 337.314ZM136.329 335.098C134.769 335.098 133.642 334.396 133.642 333.03C133.642 331.553 134.953 331.026 136.551 330.814C137.446 330.694 139.57 330.454 139.967 330.057V331.885C139.967 333.565 138.628 335.098 136.329 335.098ZM146.144 337H148.905V322.818H146.144V337ZM147.539 320.63C148.49 320.63 149.284 319.891 149.284 318.987C149.284 318.082 148.49 317.334 147.539 317.334C146.578 317.334 145.794 318.082 145.794 318.987C145.794 319.891 146.578 320.63 147.539 320.63ZM155.12 318.091H152.359V337H155.12V318.091ZM169.201 326.281C168.628 324.074 166.902 322.634 163.836 322.634C160.633 322.634 158.361 324.323 158.361 326.835C158.361 328.847 159.58 330.186 162.239 330.777L164.64 331.303C166.006 331.608 166.643 332.217 166.643 333.104C166.643 334.202 165.471 335.061 163.661 335.061C162.008 335.061 160.947 334.35 160.614 332.956L157.946 333.362C158.407 335.874 160.494 337.286 163.679 337.286C167.105 337.286 169.478 335.467 169.478 332.901C169.478 330.897 168.204 329.66 165.6 329.06L163.347 328.543C161.787 328.173 161.113 327.647 161.122 326.687C161.113 325.597 162.295 324.822 163.864 324.822C165.581 324.822 166.375 325.773 166.699 326.724L169.201 326.281ZM178.227 337.286C181.578 337.286 183.748 335.273 184.053 332.513H181.366C181.015 334.045 179.824 334.95 178.245 334.95C175.909 334.95 174.404 333.002 174.404 329.909C174.404 326.871 175.937 324.96 178.245 324.96C180 324.96 181.071 326.068 181.366 327.398H184.053C183.757 324.536 181.421 322.634 178.199 322.634C174.201 322.634 171.616 325.643 171.616 329.974C171.616 334.249 174.109 337.286 178.227 337.286ZM190.872 337.314C193.217 337.314 194.538 336.123 195.064 335.061H195.175V337H197.871V327.582C197.871 323.455 194.621 322.634 192.368 322.634C189.801 322.634 187.438 323.668 186.514 326.253L189.109 326.844C189.515 325.837 190.549 324.868 192.405 324.868C194.187 324.868 195.101 325.8 195.101 327.407V327.472C195.101 328.478 194.067 328.46 191.518 328.755C188.832 329.069 186.08 329.771 186.08 332.993C186.08 335.781 188.176 337.314 190.872 337.314ZM191.472 335.098C189.912 335.098 188.786 334.396 188.786 333.03C188.786 331.553 190.097 331.026 191.694 330.814C192.59 330.694 194.713 330.454 195.11 330.057V331.885C195.11 333.565 193.771 335.098 191.472 335.098ZM204.048 318.091H201.288V337H204.048V318.091ZM213.615 337.286C216.708 337.286 218.896 335.763 219.524 333.455L216.911 332.984C216.412 334.322 215.212 335.006 213.642 335.006C211.279 335.006 209.691 333.473 209.617 330.74H219.699V329.761C219.699 324.637 216.634 322.634 213.421 322.634C209.469 322.634 206.865 325.643 206.865 330.001C206.865 334.406 209.432 337.286 213.615 337.286ZM209.626 328.672C209.737 326.659 211.196 324.914 213.439 324.914C215.581 324.914 216.985 326.502 216.994 328.672H209.626ZM245.05 324.24C244.404 320.196 241.237 317.832 237.239 317.832C232.345 317.832 228.735 321.498 228.735 327.545C228.735 333.593 232.327 337.259 237.239 337.259C241.394 337.259 244.431 334.655 245.05 330.915L242.169 330.906C241.68 333.325 239.649 334.655 237.257 334.655C234.016 334.655 231.57 332.171 231.57 327.545C231.57 322.957 234.007 320.436 237.266 320.436C239.676 320.436 241.698 321.793 242.169 324.24H245.05ZM250.743 318.091H247.982V337H250.743V318.091ZM254.197 337H256.957V322.818H254.197V337ZM255.591 320.63C256.542 320.63 257.336 319.891 257.336 318.987C257.336 318.082 256.542 317.334 255.591 317.334C254.631 317.334 253.846 318.082 253.846 318.987C253.846 319.891 254.631 320.63 255.591 320.63ZM266.524 337.286C269.617 337.286 271.805 335.763 272.433 333.455L269.82 332.984C269.321 334.322 268.121 335.006 266.551 335.006C264.188 335.006 262.6 333.473 262.526 330.74H272.608V329.761C272.608 324.637 269.543 322.634 266.33 322.634C262.378 322.634 259.774 325.643 259.774 330.001C259.774 334.406 262.341 337.286 266.524 337.286ZM262.535 328.672C262.646 326.659 264.105 324.914 266.348 324.914C268.49 324.914 269.894 326.502 269.903 328.672H262.535ZM278.172 328.58C278.172 326.317 279.557 325.025 281.477 325.025C283.351 325.025 284.487 326.253 284.487 328.312V337H287.248V327.979C287.248 324.471 285.318 322.634 282.419 322.634C280.286 322.634 278.892 323.621 278.236 325.126H278.061V322.818H275.411V337H278.172V328.58ZM297.31 322.818H294.402V319.42H291.641V322.818H289.564V325.034H291.641V333.408C291.632 335.984 293.599 337.231 295.778 337.185C296.655 337.175 297.246 337.009 297.569 336.889L297.07 334.609C296.886 334.646 296.544 334.729 296.101 334.729C295.205 334.729 294.402 334.433 294.402 332.836V325.034H297.31V322.818Z" fill="#242424"></path>
<circle cx="448" cy="327.5" r="13" fill="#343433"></circle>
<circle cx="448" cy="328" r="5" fill="#4D78C8"></circle>
<path d="M1308 348V160H478.5M478.5 160L488 150.5M478.5 160L488 169.5" stroke="#4D78C8" stroke-width="3"></path>
<path d="M1083 451H1163.5M1163.5 451L1153.5 441M1163.5 451L1153.5 461" stroke="#4D78C8" stroke-width="3"></path>
<path d="M448.5 263H555C563.837 263 571 270.163 571 279V395C571 403.837 578.163 411 587 411H678.5M678.5 411L672 404.5M678.5 411L672 417.5" stroke="#4D78C8" stroke-width="2.5"></path>
<path d="M449 328.5H535.5C542.127 328.5 547.5 333.873 547.5 340.5V419C547.5 425.627 552.873 431 559.5 431H678.5M678.5 431L672 424.5M678.5 431L672 437.5" stroke="#4D78C8" stroke-width="2.5"></path>
<path d="M449 500H535.5C542.127 500 547.5 494.627 547.5 488V463C547.5 456.373 552.873 451 559.5 451H678.5M678.5 451L672 444.5M678.5 451L672 457.5" stroke="#4D78C8" stroke-width="2.5"></path>
<path d="M449.5 669H555C563.837 669 571 661.837 571 653V487C571 478.163 578.163 471 587 471H678.5M678.5 471L672 464.5M678.5 471L672 477.5" stroke="#4D78C8" stroke-width="2.5"></path>
<path d="M447.5 731.5H581C589.837 731.5 597 724.337 597 715.5V503C597 496.373 602.373 491 609 491H678.5M678.5 491L672 484.5M678.5 491L672 497.5" stroke="#4D78C8" stroke-width="2.5"></path>
</svg>
